<?xml version="1.0" encoding="utf-8"?><!DOCTYPE svg PUBLIC "-//W3C//DTD SVG 1.1//EN" "http://www.w3.org/Graphics/SVG/1.1/DTD/svg11.dtd"><svg version="1.1" xmlns="http://www.w3.org/2000/svg" width="480" height="160" viewBox="0 0 480 160"><g transform="translate(0,0) scale(0.303,0.303)"><g><rect fill="#ffffff" width="1584" height="528" x="-0" y="-0" /></g><g transform="translate(0,0)"><g transform="translate(0,0)"><g transform="translate(5.28000000000003,5.28000000000003) scale(0.98,0.98)"><g transform="scale(2.9464285714285716,2.9464285714285716) translate(39.599999999999994,19.599999999999994)"><g transform="translate(0.000000,140.000000) scale(0.100000,-0.100000)"
fill="#043361" stroke="none">
<path d="M577 1377 c-29 -24 -45 -71 -28 -81 6 -4 11 -36 11 -72 l0 -65 -77
-35 c-43 -20 -125 -52 -183 -71 -58 -19 -114 -38 -125 -43 -11 -5 -44 -12 -73
-15 -67 -9 -88 -36 -43 -59 27 -15 95 -14 131 1 20 8 22 9 118 32 46 12 92 26
103 32 20 10 20 10 3 -18 -10 -15 -32 -46 -49 -67 -16 -22 -44 -63 -62 -90
-17 -28 -49 -77 -70 -109 -21 -33 -42 -67 -48 -76 -5 -9 -31 -41 -57 -71 -62
-71 -129 -182 -118 -194 5 -5 35 17 72 53 228 223 289 288 308 328 11 24 34
62 50 85 31 43 100 179 100 197 0 15 27 14 32 0 4 -12 -13 -101 -25 -129 -8
-20 -16 -93 -16 -152 -1 -47 -2 -48 -53 -77 -77 -43 -129 -81 -123 -91 9 -15
70 -17 109 -4 21 8 48 14 60 14 11 0 43 11 70 25 70 35 75 34 65 -21 -5 -25
-11 -49 -14 -53 -2 -5 -24 -5 -47 0 -63 12 -136 11 -144 -3 -10 -15 72 -87
109 -95 15 -3 27 -9 27 -13 0 -10 -26 -16 -159 -40 -94 -17 -107 -18 -114 -4
-13 23 -34 0 -35 -41 -1 -25 5 -38 21 -50 24 -16 89 -20 115 -6 9 5 37 11 62
14 25 4 61 11 80 17 81 24 114 2 84 -56 -8 -14 -14 -38 -14 -53 0 -37 -64 -99
-110 -105 -56 -9 -69 -12 -76 -19 -4 -4 -25 -7 -46 -7 -21 0 -38 -4 -38 -8 0
-19 99 -60 168 -70 77 -11 75 -11 154 36 52 32 69 83 74 217 3 75 8 112 17
117 7 3 46 10 87 13 60 6 79 12 93 29 20 25 31 61 24 79 -8 22 -122 21 -192
-1 -55 -18 -61 -18 -82 -3 -12 9 -23 20 -23 25 0 7 28 47 115 165 31 42 32 67
3 82 -13 7 -27 18 -31 25 -18 31 -105 0 -140 -48 -14 -21 3 65 19 89 7 12 16
41 19 64 3 23 7 44 9 47 9 8 72 -32 94 -59 21 -26 28 -29 58 -23 23 4 42 1 59
-10 27 -18 49 -13 83 17 35 32 28 62 -20 94 -45 31 -100 35 -225 21 l-63 -8 0
53 0 52 68 32 c38 18 79 41 92 51 22 17 23 23 12 46 -10 23 -17 26 -60 26 -26
0 -52 -4 -57 -8 -6 -5 -23 -14 -38 -20 l-28 -12 5 80 c5 78 4 80 -23 99 -27
20 -27 20 -54 -2z"/>
</g>
</g></g></g><g transform="translate(528,0)"><g transform="translate(0,0) scale(1,1)"><g transform="scale(2.9464285714285716,2.9464285714285716) translate(19.599999999999994,25.099999999999994)"><g transform="translate(0.000000,129.000000) scale(0.100000,-0.100000)"
fill="#043361" stroke="none">
<path d="M757 1276 c-18 -19 -41 -75 -34 -83 4 -3 13 0 22 7 13 11 15 5 15
-53 0 -73 -6 -97 -25 -97 -18 0 -175 -73 -175 -81 0 -16 98 -53 137 -52 41 1
58 -12 44 -35 -3 -6 -38 -22 -76 -35 -97 -34 -125 -40 -125 -26 0 18 -10 5
-15 -19 -6 -34 18 -46 67 -32 24 6 67 17 96 25 l52 13 0 -36 c0 -31 -5 -40
-31 -54 -17 -10 -42 -18 -55 -18 -13 0 -24 -4 -24 -9 0 -16 43 -41 69 -41 l25
0 -31 -27 c-43 -38 -50 -67 -21 -87 12 -9 31 -16 41 -16 13 0 -4 -22 -57 -71
-42 -39 -79 -82 -82 -95 l-6 -24 -28 20 c-15 11 -33 33 -40 49 -11 27 -9 35
21 88 19 32 34 64 35 71 4 22 -34 52 -63 52 -34 0 -101 -18 -107 -29 -7 -11
45 -81 60 -81 8 0 13 -25 15 -79 4 -71 7 -83 32 -108 15 -16 27 -31 27 -34 0
-3 -16 -6 -36 -7 -41 -3 -117 -38 -110 -51 3 -5 23 -4 44 2 21 6 51 7 66 3
l29 -7 -29 -31 c-42 -44 -109 -88 -135 -88 -17 0 -19 -3 -10 -14 8 -10 29 -13
66 -12 45 2 60 8 99 40 25 20 51 46 56 56 10 19 12 19 73 -4 34 -13 82 -32
107 -44 42 -18 180 -66 311 -108 54 -16 60 -16 145 1 72 15 100 26 146 59 32
23 58 44 58 47 0 12 -85 39 -155 49 -38 5 -114 10 -169 10 -54 0 -127 5 -161
12 l-63 11 -1 101 -2 102 108 33 c59 18 123 39 141 45 l33 12 -21 27 c-12 15
-30 27 -40 27 -10 0 -22 5 -25 10 -3 6 -16 10 -28 10 -15 0 -28 12 -42 38 -16
30 -26 38 -54 40 -19 2 -45 -2 -58 -9 -13 -7 -26 -9 -30 -5 -14 14 15 41 62
58 53 19 66 29 48 35 -15 5 -17 33 -3 33 6 0 10 5 10 11 0 5 14 28 32 50 l31
39 74 0 c69 0 73 1 73 23 0 27 -41 67 -69 67 -17 0 -21 6 -21 31 0 23 -10 40
-37 66 -37 34 -39 34 -115 31 -65 -3 -77 -1 -73 12 2 8 9 46 16 83 11 65 10
69 -12 93 -25 27 -70 32 -92 10z m163 -318 c0 -24 -16 -38 -48 -44 -28 -6 -32
-4 -32 14 0 12 8 26 18 31 24 14 62 13 62 -1z m-55 -145 c-7 -30 -28 -49 -33
-32 -7 20 9 59 24 59 13 0 15 -6 9 -27z m-125 -208 c0 -8 -11 -17 -25 -21 -37
-9 -42 2 -8 20 35 19 33 19 33 1z m248 -40 c17 -37 15 -42 -15 -53 -16 -5 -52
-19 -81 -31 l-54 -21 4 42 c3 41 5 43 58 64 71 29 75 29 88 -1z m-250 -122
c-3 -34 -6 -37 -57 -55 -30 -10 -57 -16 -60 -13 -6 6 99 105 112 105 4 0 7
-16 5 -37z m1 -147 l1 -64 -71 18 c-80 21 -74 18 -83 46 -6 20 0 24 66 42 40
11 76 21 79 21 4 1 7 -28 8 -63z"/>
<path d="M214 1077 c-1 -31 -12 -80 -28 -122 -47 -118 -89 -219 -97 -230 -22
-30 -81 -205 -80 -234 2 -44 9 -55 27 -40 8 6 14 8 14 3 0 -8 26 20 78 82 5 6
13 20 16 32 4 12 12 22 17 22 6 0 8 4 4 9 -3 5 2 16 10 24 8 9 15 19 15 23 0
3 16 28 35 55 19 27 37 60 41 74 3 14 10 25 15 25 5 0 9 5 9 11 0 16 81 93
111 106 30 13 45 54 29 83 -16 30 -171 130 -202 130 -9 0 -13 -16 -14 -53z"/>
<path d="M162 533 c10 -36 5 -243 -8 -321 -7 -44 10 -92 48 -130 24 -25 34
-30 44 -21 8 6 14 17 14 25 0 7 8 17 17 22 15 9 17 30 16 172 -1 182 4 168
-95 251 l-47 40 11 -38z"/>
</g>
</g></g></g><g transform="translate(1056,0)"><g transform="translate(0,0) scale(1,1)"><g transform="scale(2.9464285714285716,2.9464285714285716) translate(19.599999999999994,23.599999999999994)"><g transform="translate(0.000000,132.000000) scale(0.100000,-0.100000)"
fill="#043361" stroke="none">
<path d="M293 1307 c-39 -9 -43 -13 -44 -41 0 -17 -2 -43 -3 -58 -1 -18 3 -28
12 -28 12 0 13 -18 9 -97 -3 -54 -8 -105 -11 -114 -4 -9 -46 -38 -94 -64 -65
-36 -97 -49 -124 -47 -25 0 -38 -3 -38 -12 0 -18 128 -141 145 -140 8 1 26 5
40 8 24 6 26 5 19 -16 -5 -13 -8 -33 -9 -45 0 -11 -3 -19 -6 -17 -4 2 -10 -8
-13 -22 -11 -41 -88 -208 -100 -216 -6 -4 -7 -8 -3 -8 5 0 0 -12 -11 -27 -39
-58 -44 -117 -14 -160 17 -23 56 -31 67 -13 9 15 28 12 22 -3 -3 -8 5 -27 19
-43 13 -16 23 -34 24 -40 0 -6 25 -33 55 -59 48 -41 56 -44 62 -28 3 10 14 30
25 44 23 34 35 159 30 309 -3 77 4 106 36 154 18 26 32 49 32 52 0 3 9 19 21
35 11 16 22 35 23 42 1 7 4 17 7 22 15 26 18 46 7 39 -7 -4 -2 10 11 31 14 25
19 41 12 43 -6 2 -8 8 -5 14 3 5 -21 -12 -55 -38 -43 -33 -65 -44 -72 -37 -11
11 -8 101 3 93 4 -3 13 2 20 12 7 9 22 18 33 20 11 2 19 10 17 17 -1 7 4 24
13 38 15 22 15 27 1 47 -8 13 -30 30 -48 39 -33 15 -34 18 -32 70 1 30 3 59 6
63 2 5 5 25 7 44 1 19 7 39 12 45 13 13 11 42 -6 75 -17 33 -30 35 -102 17z
m-39 -1029 c-3 -40 -8 -76 -11 -80 -6 -10 -73 -5 -73 5 0 20 74 147 86 147 3
0 2 -33 -2 -72z"/>
<path d="M776 1293 c-27 -28 -18 -48 15 -37 9 2 19 -2 22 -10 12 -31 -16 -247
-36 -273 -4 -7 -39 -21 -75 -33 -37 -12 -73 -24 -81 -26 -30 -10 24 -33 77
-34 51 0 53 -1 47 -22 -19 -62 -120 -225 -143 -231 -10 -3 -4 -5 11 -6 16 0
26 -5 22 -11 -3 -5 1 -10 9 -10 9 0 18 -12 21 -27 3 -16 15 -46 25 -67 21 -41
16 -55 -20 -56 -9 0 -6 -6 9 -16 16 -12 36 -15 68 -11 l46 5 -36 -32 c-105
-93 -127 -116 -127 -133 0 -11 -8 -3 -20 20 -17 31 -20 56 -20 156 l0 119 -40
32 c-22 17 -40 28 -41 23 0 -4 0 -48 0 -98 1 -49 -4 -113 -9 -142 -15 -69 -1
-118 51 -177 43 -49 69 -59 69 -27 0 35 10 48 34 44 18 -4 79 13 147 41 14 6
17 -8 24 -113 4 -67 11 -121 16 -121 4 0 19 16 32 35 13 19 26 32 29 29 14
-13 29 71 25 134 -2 37 -2 75 1 84 5 21 60 38 122 38 49 0 80 13 61 24 -6 4
-9 11 -6 16 5 9 -11 15 -60 24 -11 1 -27 5 -35 9 -46 17 -50 16 -47 -4 1 -14
-6 -24 -21 -30 -14 -5 -21 -5 -17 1 3 5 -3 17 -15 27 -11 10 -20 21 -20 25 0
10 106 88 120 88 7 0 8 6 2 16 -6 11 2 26 29 57 64 70 76 126 27 128 l-23 0
24 10 c13 5 58 12 99 16 83 7 94 0 85 -52 -27 -159 -58 -305 -85 -402 -20 -68
-22 -72 -56 -78 -20 -4 -39 -2 -45 4 -6 6 -18 11 -26 11 -10 0 -5 -7 12 -19
23 -15 25 -19 12 -25 -17 -6 -12 -17 28 -54 9 -9 17 -21 17 -26 0 -18 45 -47
70 -44 56 5 74 41 104 208 8 42 15 73 25 115 6 22 22 89 37 150 14 60 33 119
40 130 20 28 18 42 -13 91 -34 52 -91 81 -132 65 -14 -5 -71 -22 -126 -36 -83
-22 -245 -76 -330 -111 -17 -7 -16 -4 6 23 16 19 34 64 49 122 l24 91 61 29
c34 15 83 31 109 35 27 4 50 14 53 22 5 15 -14 73 -26 75 -3 0 -33 1 -67 2
-58 2 -62 1 -89 -33 l-28 -35 7 33 c15 81 27 216 22 238 -12 48 -92 58 -130
17z m197 -597 c3 -8 -7 -41 -23 -74 -31 -65 -78 -106 -137 -118 l-31 -6 8 37
c4 20 20 54 34 75 34 52 33 57 -6 28 -55 -40 -83 -49 -105 -33 -15 12 -15 14
-2 15 9 0 24 9 34 20 10 11 25 20 34 20 9 0 52 11 96 24 99 30 92 29 98 12z
m-140 -330 c4 -10 -5 -18 -25 -25 -43 -15 -45 -14 -18 14 27 29 36 31 43 11z"/>
</g>
</g></g></g></g></g></svg>